<mxfile host="app.diagrams.net" agent="Mozilla/5.0 (Macintosh; Intel Mac OS X 10_15_7) AppleWebKit/605.1.15 (KHTML, like Gecko) Version/18.1 Safari/605.1.15" version="24.8.3">
  <diagram name="Page-1" id="ABz9VkYFGtSozzk2NsnT">
    <mxGraphModel>
      <root>
        <mxCell id="0" />
        <mxCell id="1" parent="0" />
        <mxCell id="2" value="Mobile Application" style="whiteSpace=wrap;strokeWidth=2;" vertex="1" parent="1">
          <mxGeometry x="358" y="8" width="254" height="274" as="geometry" />
        </mxCell>
        <mxCell id="3" value="Retailer Dashboard" style="whiteSpace=wrap;strokeWidth=2;" vertex="1" parent="1">
          <mxGeometry x="8" y="36" width="198" height="218" as="geometry" />
        </mxCell>
        <mxCell id="4" value="Upload Food Items" style="ellipse;aspect=fixed;strokeWidth=2;whiteSpace=wrap;" vertex="1" parent="1">
          <mxGeometry x="33" y="71" width="148" height="148" as="geometry" />
        </mxCell>
        <mxCell id="5" value="Claim Near-to-Expiry Food" style="ellipse;aspect=fixed;strokeWidth=2;whiteSpace=wrap;" vertex="1" parent="1">
          <mxGeometry x="383" y="43" width="204" height="204" as="geometry" />
        </mxCell>
        <mxCell id="6" value="Sends data to" style="curved=1;startArrow=none;endArrow=block;exitX=1;exitY=0.5;entryX=0;entryY=0.5;" edge="1" parent="1" source="4" target="5">
          <mxGeometry relative="1" as="geometry">
            <Array as="points" />
          </mxGeometry>
        </mxCell>
      </root>
    </mxGraphModel>
  </diagram>
</mxfile>
